<?xml version="1.0" encoding="UTF-8" standalone="no"?>
<svg
   width="42"
   height="42"
   viewBox="0 0 42 42"
   fill="none"
   version="1.1"
   id="svg4"
   xmlns="http://www.w3.org/2000/svg"
   xmlns:svg="http://www.w3.org/2000/svg">
  <defs
     id="defs8" />
  <g
     transform="matrix(0.00328353,0,0,-0.00328353,-0.01353983,34.808993)"
     fill="#000000"
     stroke="none"
     id="g6"
     style="fill:#ffffff">
    <path
       d="m 10805,8303 c -27,-10 -61,-26 -75,-36 -14,-9 -808,-799 -1765,-1755 C 8008,5557 7035,4586 6803,4355 L 6380,3935 4233,6081 C 1847,8465 2051,8273 1909,8273 1772,8273 1822,8316 889,7382 221,6713 48,6535 29,6495 -4,6427 -4,6317 28,6245 47,6202 514,5731 3128,3118 5906,341 6210,41 6255,24 c 32,-12 76,-19 120,-19 142,1 -153,-282 3279,3146 2627,2625 3100,3102 3118,3144 31,70 31,180 0,250 -19,43 -161,189 -860,888 -696,695 -845,840 -886,858 -68,30 -158,34 -221,12 z"
       id="path4"
       style="fill:#ffffff" />
  </g>
</svg>
